<?xml version="1.0" encoding="utf-8"?>
<!-- Generator: Adobe Illustrator 24.0.2, SVG Export Plug-In . SVG Version: 6.00 Build 0)  -->
<svg version="1.1" id="Layer_1" xmlns="http://www.w3.org/2000/svg" xmlns:xlink="http://www.w3.org/1999/xlink" x="0px" y="0px"
	 width="158.26px" height="162.99px" viewBox="0 0 158.26 162.99" style="enable-background:new 0 0 158.26 162.99;"
	 xml:space="preserve">
<style type="text/css">
	.st0{fill:#6D6E70;}
	.st1{fill:#CD9F96;}
	.st2{enable-background:new    ;}
	.st3{fill:#58595B;}
</style>
<g>
	<g>
		<g>
			<g>
				<path class="st0" d="M110.25,6.99c0.81,0.36,1.64,0.66,2.42,1.06s1.57,0.8,2.35,1.2c-6.57-3.58-13.81-6.28-21.37-7.8
					C86.1-0.08,78.22-0.42,70.53,0.53c-1.91,0.32-3.82,0.63-5.73,0.95c-1.87,0.48-3.74,0.96-5.6,1.44
					c-1.84,0.54-3.62,1.25-5.43,1.87c-0.45,0.16-0.91,0.31-1.34,0.49l-1.27,0.55c-0.85,0.36-1.69,0.73-2.53,1.09
					c-6.71,2.97-13.14,6.49-19.01,10.63c-1.48,1.01-4.53,2.99-5.91,4.2c-5.5,4.71-10.92,11.15-14.9,18.38
					c-0.93,1.83-1.94,3.64-2.76,5.5c-0.76,1.88-1.52,3.75-2.27,5.59c-0.59,1.88-1.16,3.74-1.73,5.56c-0.31,0.9-0.49,1.82-0.69,2.72
					s-0.4,1.79-0.59,2.66s-0.36,1.72-0.49,2.54c-0.1,0.82-0.14,1.62-0.19,2.37c-0.08,1.5-0.09,2.84-0.06,3.96
					c0,1.11,0.12,2.01,0.22,2.62c0.1,0.6,0.16,0.95,0.16,0.95c0.11,1.77,0.52,3.53,0.99,1.85c0.11-0.86,0.26-2.03,0.43-3.31
					s0.49-2.65,0.73-3.92c0.26-1.27,0.52-2.42,0.74-3.26c0.21-0.83,0.5-1.33,0.63-1.3c0.08,0.02-0.01,0.44-0.11,1.07
					c-0.09,0.64-0.23,1.48-0.38,2.33c0.6,0.13,0.8,5.3,0.74,6.97c0.03,0.43,0.04,1.38,0.05,2.6c0.03,1.21-0.05,2.68,0.08,4.15
					c0.17,2.94,0.35,5.86,0.46,6.7c0.19,2.52,0.85-0.02,1.69-3.89c0.4-1.94,0.79-4.23,1.34-6.4c0.24-1.09,0.47-2.16,0.68-3.15
					c0.1-0.5,0.19-0.98,0.28-1.43c0.11-0.45,0.22-0.87,0.31-1.27c0.83-3.13,0.72,0.11,1.16,0.17c0.19-1.58,0.47-2.75,0.73-3.91
					c0.14-0.58,0.25-1.17,0.41-1.79c0.17-0.62,0.34-1.29,0.49-2.07c0.04,0.01,0.21-0.56,0.47-1.48c0.28-0.92,0.55-2.23,1.08-3.6
					c0.47-1.39,0.99-2.91,1.49-4.37c0.6-1.41,1.17-2.74,1.62-3.81c0,0,0.12-0.37,0.46-1.28c0.38-0.89,1.09-2.26,2.15-4.32
					c0.35-0.69,0.51-1.04,0.58-1.23c0.06-0.19-0.01-0.23-0.07-0.26c0.13,0.07,0.13,0.07,0.25,0.15c0.29-0.73,0.92-1.7,1.55-2.67
					c0.32-0.48,0.64-0.97,0.93-1.41c0.33-0.42,0.61-0.81,0.82-1.14c0.12,0.09,0.12,0.09,0.24,0.17c0.41-0.65,0.85-1.29,1.3-1.91
					c0.46-0.62,0.9-1.25,1.45-1.79c1.06-1.12,2.1-2.26,3.11-3.43c0.1,0.1,0.1,0.1,0.21,0.21c1.13-1.05,2.25-2.11,2.35-2
					s0.1,0.11,0.2,0.22c1.15-1,3.42-3.1,3.6-2.88c-0.09-0.11-0.09-0.11-0.18-0.23c0.6-0.48,1.19-0.95,1.76-1.4
					c0.58-0.44,1.19-0.82,1.76-1.21c1.16-0.76,2.22-1.53,3.31-2.17c2.23-1.23,4.22-2.46,6.39-3.42c2.81-1.35,5.98-2.69,9.15-3.95
					c1.58-0.53,3.15-1.17,4.78-1.67c1.66-0.42,3.31-0.92,5.01-1.32c6.8-1.52,14.06-1.85,20.88-1.05c1.5,0.26,3.07,0.23,1.6-0.32
					c1.52,0.27,3.05,0.45,4.54,0.89c1.5,0.38,1.9,0.37,2.3,0.36c0.2-0.01,0.4-0.01,0.75,0.03c0.34,0.04,0.82,0.13,1.56,0.39
					c6.03,1.61,11.8,4.25,17.16,7.55s10.3,7.29,14.72,11.8l3.19,3.49c1.08,1.23,2.19,2.54,3.2,3.75c2.03,2.44,3.73,4.83,5.17,7.49
					c2.91,5.28,4.91,11.43,6.76,17.65c-1.62-6.27-2.8-11.05-5.66-16.51c0.12-0.06,0.42-0.22-0.33-1.56
					c-1.08-2.05-2.38-4.03-3.86-5.93c-1.47-1.89-3.16-3.83-4.73-5.62c-0.77-0.85-1.51-1.67-2.22-2.46c-0.35-0.4-0.69-0.78-1.03-1.16
					c-0.33-0.37-0.69-0.7-1.02-1.03c-1.33-1.32-2.41-2.51-3.21-3.41c-0.57-0.56-1.1-1.18-1.95-2.05c-0.43-0.43-0.93-0.93-1.57-1.5
					s-1.47-1.15-2.45-1.85l1.98,1.4c0.65,0.48,1.25,1.02,1.88,1.52c0.09-0.11,0.28-0.34,0.28-0.34c-0.62-0.52-1.24-1.1-1.92-1.61
					c-0.69-0.51-1.39-1.03-2.11-1.56c-0.72-0.53-1.44-1.07-2.17-1.61c-0.77-0.49-1.54-0.98-2.31-1.47s-1.55-0.98-2.31-1.47
					c-0.79-0.45-1.59-0.86-2.37-1.29c-0.78-0.42-1.56-0.84-2.31-1.25c-0.76-0.41-1.54-0.71-2.28-1.06c0,0,0.12-0.27,0.17-0.4
					l-3.02-1.28c-0.67-0.54-0.13-0.54,1.18-0.12c0.65,0.2,1.5,0.5,2.49,0.87c0.49,0.19,1.02,0.39,1.57,0.6
					c0.54,0.26,1.1,0.53,1.68,0.81c4.78,2.06,10.26,5.86,13.61,8.29c0.09-0.12,0.27-0.35,0.36-0.46c-0.86-0.71-1.81-1.31-2.71-1.97
					l0.17-0.24c4.15,2.86,7.57,5.99,10.89,9.18c3.17,3.36,6.29,6.74,9.36,10.76c-0.99-1.37-3.17-3.93-4.26-5.19
					c0.11-0.09,0.23-0.2-0.88-1.45c2.19,2.52,4.69,5.38,6.81,8.56c2.14,3.15,3.83,6.58,5.24,9.65c0.39,0.75,0.53,0.7,0.34-0.14
					s-0.68-2.48-1.78-4.81c-2.35-4.58-4.46-7.44-7.75-11.29l0.22-0.19c1.09,1.29,2.44,2.95,3.69,4.72c1.26,1.76,2.41,3.6,3.29,5.1
					c0.48,0.72,0.16-0.09-0.17-0.9c-0.34-0.81-0.71-1.61-0.19-0.9c0.47,0.75,0.86,1.53,1.31,2.28c0.4,0.77,0.85,1.53,1.28,2.29
					c-1.11-2.37-2.62-5.07-4.41-7.58c-1.78-2.51-3.76-4.82-5.34-6.76c-0.94-1.35-2.07-2.73-1.84-2.92
					c-1.49-1.57-2.86-3.11-4.29-4.43c-1.41-1.35-2.65-2.72-3.97-3.85c-1.29-1.16-2.45-2.32-3.59-3.36c-1.16-1-2.22-1.95-3.2-2.87
					c-0.6-0.68-2.85-2.06-5.49-3.66c-0.65-0.42-1.36-0.77-2.08-1.14c-0.72-0.36-1.44-0.73-2.16-1.09c-0.72-0.36-1.41-0.72-2.09-1.04
					C111.52,7.53,110.86,7.25,110.25,6.99z"/>
			</g>
		</g>
	</g>
	<g>
		<g>
			<g>
				<path class="st0" d="M90.2,162.19c-1.46,0.24-2.92,0.34-4.39,0.52c12.54-0.7,25.15-5.09,35.87-11.68
					c0.67-0.41,1.37-0.78,2.03-1.22l1.95-1.31c1.28-0.89,2.63-1.71,3.86-2.65c2.47-1.91,4.91-3.58,7.41-5.96
					c4.86-4.56,8.38-9.93,11.21-15.26c0.37-0.66,0.92-1.65,1.47-2.64c0.56-0.99,1.11-2,1.41-2.68c0.55-1.39,1.16-2.82,1.67-4.31
					c0.48-1.49,0.96-3.02,1.46-4.57c0.4-1.56,0.8-3.15,1.2-4.75c0.38-1.6,0.65-3.22,0.98-4.84c1.14-6.48,1.74-12.99,1.92-18.75
					c0.11-2.88-0.3-5.41-0.64-7.2c-0.38-1.79-0.8-2.86-0.8-2.86c-0.29-1.43-0.87-2.84-1.17-1.42c-0.07,2.82-0.38,9.89-0.96,9.86
					c-0.15-0.01-0.1-1.41-0.05-2.82c-0.58-0.03-1.59-4.25-1.63-5.64c-0.16-0.7-0.39-3.14-0.76-5.57c-0.36-2.43-0.72-4.84-0.89-5.53
					c-0.31-2.08-0.86,0.05-1.44,3.33c-0.52,3.29-1.22,7.73-1.47,10.45c-0.39,2.71-0.73-0.02-1.17-0.02c0.03,2.71-0.4,4.05-0.42,6.75
					c-0.04,0-0.11,0.5-0.2,1.32c-0.08,0.82-0.19,1.95-0.32,3.2c-0.15,1.25-0.32,2.62-0.48,3.93c-0.15,1.31-0.3,2.56-0.47,3.54
					c0,0-0.01,0.34-0.1,1.17c-0.05,0.42-0.11,0.95-0.19,1.64s-0.2,1.51-0.41,2.48c-0.25,1.31-0.11,1.33,0.03,1.36
					c-0.14-0.03-0.14-0.03-0.29-0.06c0.01,0.68-0.17,1.67-0.39,2.64c-0.25,0.96-0.52,1.92-0.61,2.58c-0.14-0.04-0.14-0.04-0.28-0.07
					c-0.08,0.66-0.2,1.31-0.34,1.95c-0.15,0.64-0.36,1.26-0.55,1.89c-0.42,1.24-0.75,2.52-1.16,3.75c-0.14-0.05-0.14-0.05-0.28-0.09
					c-0.44,1.22-0.88,2.43-1.02,2.38s-0.14-0.05-0.27-0.1c-0.27,0.59-0.61,1.48-0.92,2.21c-0.3,0.74-0.55,1.32-0.68,1.26
					c0.13,0.06,0.13,0.06,0.27,0.12c-2.11,4.62-4.24,7.7-6.55,10.44c-0.85,0.82-1.67,1.73-2.56,2.57c-0.46,0.4-0.93,0.8-1.4,1.2
					l-0.7,0.62l-0.86,0.65c-1.14,0.88-2.31,1.77-3.48,2.68c-1.17,0.92-2.43,1.7-3.65,2.59c-4.95,3.4-10.27,6.48-15.58,8.72
					c-1.2,0.43-2.31,1.15-1,0.98c-1.22,0.42-2.41,0.94-3.65,1.25c-2.47,0.7-1.1,0.83-3.6,1.47c-4.97,1.43-10.12,2.16-15.31,2.24
					c-2.59,0.07-5.2-0.1-7.82-0.33c-1.31-0.13-2.63-0.29-3.97-0.48l-1.81-0.31c-0.6-0.1-1.19-0.27-1.79-0.4
					c-9.57-2.37-18.42-8.9-28.17-14.62c4.74,3.09,8.05,5.65,12.77,8.27c-0.07,0.13-0.22,0.38,0.94,1.06
					c3.46,2.07,7.3,3.95,10.76,5.13c1.73,0.63,3.36,1.05,4.79,1.42c0.71,0.17,1.38,0.32,1.98,0.46c0.61,0.15,1.22,0.27,1.7,0.41
					c1.32,0.3,2.61,0.95,6.62,1.18c-1.34-0.06-2.67-0.17-4.01-0.3c-0.01,0.15-0.04,0.44-0.04,0.44c5.36,0.71,12.12,0.82,17.48,0.1
					c0,0,0.04,0.29,0.06,0.43l2.68-0.44c0.72,0.14,0.34,0.39-0.76,0.7c-0.55,0.16-1.27,0.33-2.13,0.52
					c-0.85,0.18-1.85,0.29-2.91,0.44c-4.26,0.57-9.79,0.51-13.23,0.26c-0.01,0.15-0.04,0.44-0.05,0.58
					c0.92,0.06,1.85,0.17,2.77,0.18l-0.01,0.29c-2.09-0.1-4.09-0.29-6.03-0.51c-1.94-0.24-3.85-0.48-5.73-0.93
					c-3.76-0.84-7.37-2.22-11.13-4.07c1.25,0.63,3.8,1.77,5.12,2.24c-0.05,0.12-0.12,0.31,1.22,0.75
					c-5.36-1.81-11.39-5.42-16.26-8.12c-1.25-0.62-0.34,0.52,3.21,2.8c3.65,2.11,6.14,3.48,10.08,5.14l-0.11,0.27
					c-2.68-1.06-6.4-3.15-8.9-4.45c-1.31-0.57,2.25,1.77,0.95,1.2c-1.25-0.69-2.47-1.41-3.76-2.01c3.61,2.21,8.73,4.8,12.79,6.46
					c1.31,0.66,2.67,1.24,2.58,1.53c0.9,0.24,1.77,0.49,2.63,0.71c0.87,0.19,1.7,0.42,2.53,0.57c0.82,0.15,1.66,0.33,2.4,0.46
					s1.47,0.26,2.17,0.39c2.83,0.51,5.34,0.98,7.53,1.41c0.72,0.19,2.93,0.25,5.51,0.15C85.09,162.84,88.02,162.5,90.2,162.19z"/>
			</g>
		</g>
	</g>
	<g>
		<g>
			<g>
				<path class="st1" d="M5.23,111.45c-0.24-0.45-0.42-0.94-0.64-1.41c1.5,4.13,3.59,8.14,5.98,11.84c2.38,3.71,4.9,7.25,7.29,10.59
					c0.24,0.48,0.71,1.44,0.95,1.92c2.53,3.27,6.35,6.78,9.75,9.1c0.84,0.6,1.8,0.83,2.56,0.89c0.77,0.05,1.31-0.04,1.31-0.04
					c0.58,0.07,1.33-0.09,1.11-0.63c-0.73-0.69-2.65-2.27-2.27-2.73c0.09-0.11,0.47,0.2,0.85,0.52c0.18-0.23,0.74-0.33,1.3-0.35
					c0.57-0.03,1.14,0.03,1.33,0.18c0.57,0.07,3.41,1.1,3.96,1.14c1.39,0.49-0.75-3.85-1.94-5.29c-0.54-0.81,0.45-0.57,0.72-0.92
					c-0.81-0.46-0.88-1.1-1.68-1.57c0.1-0.12-1.95-1.94-2.93-2.9c0,0-0.43-0.2-1.45-1.12c-0.34-0.31-0.44-0.2-0.54-0.1
					c0.1-0.11,0.1-0.11,0.2-0.21c-0.55-0.09-0.99-0.95-1.41-1.17c0.1-0.1,0.1-0.1,0.21-0.21c-0.85-0.44-1.28-1.29-2.03-1.84
					c0.11-0.1,0.11-0.1,0.21-0.2c-0.33-0.32-0.63-0.65-0.52-0.76c0.11-0.1,0.11-0.1,0.21-0.2c-0.2-0.44-1.02-0.91-0.8-1.11
					c-0.11,0.1-0.11,0.1-0.22,0.2c-0.61-0.67-1.11-1.29-1.56-1.87c-0.44-0.59-0.8-1.17-1.17-1.74c-1.87-3.12-4.66-6.56-6.92-9.86
					c-0.22-0.38-0.7-0.62-0.73-0.09l-0.68-1.16c-0.42-0.78-0.59-0.18-1-0.98c-2.04-2.98-3.36-6.32-4.32-9.65
					c-0.94-3.34-1.44-6.71-1.56-9.91c-0.05,0.81-0.15,1.52-0.21,2.25c-0.05,0.72,0.05,1.47,0.2,2.3c-0.14,0.02-0.43,0.06-0.39,0.48
					c0.03,0.64,0.21,1.31,0.32,1.98c0.14,0.66,0.24,1.32,0.43,1.93c0.35,1.23,0.52,2.32,0.5,3.04c0.02,0.47-0.24,1.04,0.22,2.33
					l-0.47-1.29c-0.13,0.06-0.4,0.16-0.4,0.16c0.44,1.8,1.26,3.98,1.9,5.74c0,0-0.26,0.13-0.4,0.19l0.43,0.84
					c-0.51,1.33-2.71-3.45-3.57-5.68c-0.14,0.05-0.41,0.15-0.55,0.2l0.33,0.91l-0.27,0.1c-0.48-1.38-1-2.6-1.32-3.9
					c-0.18-0.64-0.36-1.28-0.55-1.94c-0.18-0.66-0.29-1.35-0.44-2.06c0.1,0.48,0.28,1.43,0.4,1.9c-0.14,0.03-0.28,0.07-0.15,0.54
					c-0.49-1.9-0.8-4.31-1.25-6.24c-0.2-0.48-0.58,0.04-0.56,1.56c0.07,0.75,0.19,1.37,0.32,1.98c0.12,0.61,0.25,1.22,0.4,1.96
					l-0.28,0.07c-0.19-0.99-0.39-2.48-0.66-3.46c-0.22-0.48-0.3,1.07-0.51,0.6c-0.08-0.51-0.12-1.02-0.33-1.52
					c0.06,0.76,0.2,1.65,0.42,2.52c0.2,0.87,0.36,1.75,0.47,2.51c0,0.52-0.01,1.05-0.29,1.13c0.78,2.45,1.13,4.46,0.97,6.2
					C3.42,107.73,4.58,110.05,5.23,111.45z"/>
			</g>
		</g>
	</g>
</g>
<g class="st2">
	<path class="st3" d="M37.28,93.41h13.03v0.4H36.85V68.26h0.44V93.41z"/>
	<path class="st3" d="M75.94,81.04c0,2.02-0.29,3.83-0.87,5.44c-0.58,1.61-1.39,2.97-2.43,4.1c-1.04,1.12-2.28,1.99-3.73,2.59
		c-1.45,0.6-3.05,0.9-4.8,0.9c-1.74,0-3.33-0.3-4.77-0.9c-1.44-0.6-2.68-1.47-3.72-2.59c-1.04-1.13-1.85-2.49-2.43-4.1
		c-0.58-1.61-0.87-3.42-0.87-5.44c0-2.01,0.29-3.82,0.87-5.43c0.58-1.61,1.39-2.98,2.43-4.12c1.04-1.13,2.28-2,3.72-2.61
		s3.03-0.91,4.77-0.91c1.75,0,3.35,0.3,4.8,0.9c1.45,0.6,2.69,1.47,3.73,2.6s1.85,2.5,2.43,4.12C75.65,77.2,75.94,79.02,75.94,81.04
		z M75.47,81.04c0-1.98-0.28-3.76-0.83-5.33c-0.55-1.57-1.33-2.9-2.33-4c-1-1.1-2.19-1.93-3.59-2.51s-2.93-0.87-4.61-0.87
		c-1.65,0-3.18,0.29-4.56,0.87s-2.58,1.41-3.59,2.51c-1,1.09-1.79,2.43-2.35,4c-0.57,1.57-0.85,3.35-0.85,5.33
		c0,1.98,0.28,3.76,0.85,5.32s1.35,2.89,2.35,3.98s2.2,1.92,3.59,2.5s2.91,0.87,4.56,0.87c1.68,0,3.22-0.29,4.61-0.87
		s2.59-1.41,3.59-2.5s1.77-2.42,2.33-3.98S75.47,83.02,75.47,81.04z"/>
	<path class="st3" d="M105.04,81.04c0,2.02-0.29,3.83-0.87,5.44c-0.58,1.61-1.39,2.97-2.43,4.1c-1.04,1.12-2.28,1.99-3.73,2.59
		c-1.45,0.6-3.05,0.9-4.8,0.9c-1.74,0-3.33-0.3-4.77-0.9c-1.44-0.6-2.68-1.47-3.72-2.59c-1.04-1.13-1.85-2.49-2.43-4.1
		c-0.58-1.61-0.87-3.42-0.87-5.44c0-2.01,0.29-3.82,0.87-5.43s1.39-2.98,2.43-4.12c1.04-1.13,2.28-2,3.72-2.61
		c1.44-0.61,3.03-0.91,4.77-0.91c1.75,0,3.35,0.3,4.8,0.9c1.45,0.6,2.69,1.47,3.73,2.6c1.04,1.13,1.85,2.5,2.43,4.12
		S105.04,79.02,105.04,81.04z M104.56,81.04c0-1.98-0.28-3.76-0.83-5.33c-0.55-1.57-1.33-2.9-2.33-4c-1-1.1-2.19-1.93-3.59-2.51
		c-1.39-0.58-2.93-0.87-4.61-0.87c-1.66,0-3.18,0.29-4.56,0.87c-1.39,0.58-2.58,1.41-3.59,2.51c-1,1.09-1.79,2.43-2.35,4
		c-0.57,1.57-0.85,3.35-0.85,5.33c0,1.98,0.28,3.76,0.85,5.32c0.57,1.56,1.35,2.89,2.35,3.98s2.2,1.92,3.59,2.5
		c1.39,0.58,2.91,0.87,4.56,0.87c1.68,0,3.21-0.29,4.61-0.87c1.39-0.58,2.59-1.41,3.59-2.5c1-1.09,1.77-2.42,2.33-3.98
		S104.56,83.02,104.56,81.04z"/>
	<path class="st3" d="M113.32,82.86v10.95h-0.44V68.26h5.77c2.79,0,4.92,0.6,6.42,1.81c1.49,1.2,2.24,3.04,2.24,5.49
		c0,1.06-0.21,2.04-0.63,2.93c-0.42,0.89-1.01,1.66-1.78,2.31c-0.77,0.65-1.68,1.15-2.74,1.51c-1.06,0.37-2.23,0.55-3.5,0.55H113.32
		z M113.32,82.5h5.33c1.25,0,2.38-0.18,3.4-0.54c1.01-0.36,1.87-0.85,2.58-1.48c0.71-0.63,1.26-1.36,1.65-2.2
		c0.39-0.84,0.58-1.75,0.58-2.72c0-2.28-0.68-4-2.05-5.17c-1.37-1.17-3.42-1.76-6.16-1.76h-5.33V82.5z"/>
</g>
</svg>
