<?xml version="1.0" encoding="utf-8"?>
<!-- Generator: Adobe Illustrator 24.0.2, SVG Export Plug-In . SVG Version: 6.00 Build 0)  -->
<svg version="1.1" id="Layer_1" xmlns="http://www.w3.org/2000/svg" xmlns:xlink="http://www.w3.org/1999/xlink" x="0px" y="0px"
	 width="120.28px" height="35.87px" viewBox="0 0 120.28 35.87" style="enable-background:new 0 0 120.28 35.87;"
	 xml:space="preserve">
<style type="text/css">
	.st0{fill:#6D6E70;}
	.st1{fill:#CD9F96;}
	.st2{fill:#58595B;stroke:#58595B;stroke-width:0.2804;stroke-miterlimit:10;}
</style>
<g>
	<g>
		<g>
			<g>
				<g>
					<path class="st0" d="M84.3,1.54c0.36,0.14,0.71,0.32,1.05,0.5c-2.88-1.58-6.39-2.35-9.79-1.92c-1.69,0.19-3.36,0.75-4.82,1.4
						c-1.48,0.65-2.89,1.43-4.18,2.34c-0.33,0.22-1,0.66-1.3,0.93c-1.22,1.04-2.41,2.45-3.28,4.05c-0.89,1.58-1.46,3.31-1.77,4.85
						c-0.33,1.55-0.08,2.74-0.08,2.74c0.03,0.39,0.12,0.78,0.22,0.41c0.07-0.75,0.42-2.62,0.56-2.59c0.02,0.01-0.05,0.37-0.11,0.75
						c0.13,0.03,0.18,1.17,0.16,1.53c0.02,0.19,0,0.84,0.03,1.49c0.04,0.65,0.08,1.29,0.1,1.47c0.07,1.09,0.61-2.18,0.95-3.55
						c0.18-0.69,0.16,0.03,0.25,0.04c0.1-0.69,0.21-1.03,0.36-1.71c0.03,0.01,0.13-0.51,0.34-1.12c0.1-0.31,0.22-0.64,0.33-0.96
						c0.13-0.31,0.26-0.6,0.36-0.84c0,0,0.03-0.09,0.1-0.28c0.08-0.2,0.24-0.5,0.47-0.95c0.15-0.3,0.15-0.31,0.11-0.33
						c0.03,0.02,0.03,0.02,0.06,0.03c0.14-0.31,0.52-0.88,0.73-1.15c0.03,0.02,0.03,0.02,0.05,0.04c0.34-0.59,0.85-1.05,1.29-1.57
						c0.02,0.02,0.02,0.02,0.05,0.05c0.25-0.23,0.5-0.46,0.52-0.44c0.02,0.02,0.02,0.02,0.04,0.05c0.25-0.22,0.75-0.68,0.79-0.63
						c-0.02-0.03-0.02-0.03-0.04-0.05c1.06-0.85,1.97-1.35,2.91-1.81c0.62-0.3,1.32-0.59,2.01-0.87c0.35-0.12,0.69-0.26,1.05-0.37
						c0.36-0.1,0.73-0.19,1.1-0.29c1.5-0.33,3.09-0.41,4.59-0.23c0.33,0.06,0.67,0.05,0.35-0.07c0.33,0.06,0.67,0.1,1,0.2
						c0.66,0.17,0.36-0.03,1.01,0.17c2.66,0.72,5.07,2.28,7.02,4.26l0.7,0.77l0.7,0.82c0.45,0.54,0.82,1.06,1.14,1.65
						c0.64,1.16,1.08,2.51,1.49,3.88c-0.36-1.38-0.62-2.43-1.24-3.63c0.03-0.01,0.09-0.05-0.07-0.34c-0.46-0.9-1.18-1.73-1.89-2.54
						c-0.66-0.76-1.3-1.37-1.65-1.77c-0.26-0.23-0.44-0.58-1.31-1.19c0.29,0.2,0.58,0.41,0.85,0.64c0.02-0.03,0.06-0.08,0.06-0.08
						c-1.08-0.93-2.61-1.9-3.91-2.49c0,0,0.03-0.06,0.04-0.09l-0.66-0.28c-0.3-0.23,0.49,0,1.52,0.47c1.05,0.45,2.26,1.29,3,1.82
						c0.02-0.03,0.06-0.08,0.08-0.1c-0.19-0.16-0.4-0.29-0.6-0.43l0.04-0.05c1.81,1.28,3.09,2.65,4.46,4.39
						c-0.22-0.3-0.7-0.86-0.94-1.14c0.02-0.02,0.05-0.04-0.19-0.32c0.48,0.56,1.03,1.18,1.5,1.88c0.47,0.69,0.84,1.45,1.15,2.12
						c0.16,0.34,0.15-0.06-0.32-1.09c-0.52-1.01-0.98-1.64-1.71-2.48l0.05-0.04c0.49,0.56,1.16,1.5,1.54,2.16
						c0.22,0.32-0.3-0.71-0.08-0.4c0.18,0.31,0.33,0.58,0.57,1.01c-0.46-1.06-1.43-2.33-2.15-3.16c-0.21-0.3-0.46-0.6-0.4-0.64
						c-1.31-1.39-2.44-2.42-3.31-3.19C87.07,2.95,85.39,1.97,84.3,1.54z"/>
				</g>
			</g>
		</g>
		<g>
			<g>
				<g>
					<path class="st0" d="M79.89,35.69c-0.32,0.05-0.64,0.08-0.97,0.11c2.76-0.15,5.53-1.12,7.89-2.57c0.6-0.35,1.16-0.75,1.72-1.14
						c0.54-0.42,1.08-0.79,1.63-1.31c1.07-1,1.84-2.18,2.47-3.36c0.16-0.29,0.5-0.87,0.63-1.17c1.07-2.44,1.51-5.66,1.59-8.19
						c0.04-1.27-0.32-2.21-0.32-2.21c-0.06-0.31-0.19-0.62-0.26-0.31c-0.02,0.62-0.08,2.18-0.21,2.17c-0.03,0-0.02-0.31-0.01-0.62
						c-0.13-0.01-0.35-0.94-0.36-1.24c-0.05-0.31-0.28-2.14-0.36-2.44c-0.13-0.9-0.5,1.85-0.64,3.03c-0.09,0.6-0.16,0-0.26-0.01
						c0.01,0.6-0.09,0.89-0.09,1.49c-0.01,0-0.02,0.11-0.04,0.29c-0.02,0.19-0.04,0.43-0.07,0.7c-0.07,0.55-0.14,1.21-0.21,1.65
						c0,0,0,0.3-0.15,1.16c-0.06,0.29-0.02,0.29,0.01,0.3c-0.03-0.01-0.03-0.01-0.06-0.01c0.02,0.3-0.17,0.86-0.22,1.15
						c-0.03-0.01-0.03-0.01-0.06-0.02c-0.07,0.58-0.3,1.12-0.45,1.67c-0.03-0.01-0.03-0.01-0.06-0.02c-0.1,0.27-0.19,0.54-0.22,0.52
						c-0.03-0.01-0.03-0.01-0.06-0.02c-0.12,0.26-0.3,0.79-0.35,0.76c0.03,0.01,0.03,0.01,0.06,0.03c-0.46,1.02-0.93,1.69-1.44,2.3
						c-0.38,0.39-0.72,0.74-1.21,1.11c-0.5,0.39-1.02,0.79-1.57,1.16c-1.09,0.75-2.26,1.42-3.43,1.92c-0.26,0.1-0.51,0.25-0.22,0.22
						c-0.27,0.09-0.53,0.21-0.8,0.28c-0.54,0.15-0.24,0.18-0.79,0.32c-2.16,0.64-4.58,0.62-6.75,0.16c-2.11-0.52-4.05-1.96-6.2-3.22
						c1.04,0.68,1.77,1.24,2.81,1.82c-0.02,0.03-0.05,0.08,0.21,0.23c0.76,0.45,1.61,0.87,2.37,1.13c0.77,0.27,1.41,0.39,1.86,0.51
						c0.29,0.07,0.57,0.21,1.46,0.26c-0.29-0.01-0.59-0.04-0.88-0.07c0,0.03-0.01,0.1-0.01,0.1c1.18,0.16,2.67,0.18,3.85,0.02
						c0,0,0.01,0.06,0.01,0.1l0.59-0.1c0.32,0.05-0.34,0.25-1.28,0.37c-0.94,0.13-2.15,0.11-2.91,0.06c0,0.03-0.01,0.1-0.01,0.13
						c0.2,0.01,0.41,0.04,0.61,0.04l0,0.06c-1.83-0.09-3.39-0.36-5.04-1.21c0.27,0.14,0.84,0.39,1.13,0.49
						c-0.01,0.03-0.03,0.07,0.27,0.17c-1.18-0.4-2.51-1.19-3.58-1.79c-0.28-0.14-0.07,0.11,0.71,0.62c0.8,0.46,1.35,0.77,2.22,1.13
						l-0.02,0.06c-0.59-0.23-1.41-0.69-1.96-0.98c-0.29-0.13,0.5,0.39,0.21,0.27c-0.28-0.15-0.54-0.31-0.83-0.44
						c0.8,0.49,1.92,1.06,2.81,1.42c0.29,0.14,0.59,0.27,0.57,0.34c1.61,0.45,2.83,0.56,3.8,0.78
						C77.3,35.92,78.93,35.86,79.89,35.69z"/>
				</g>
			</g>
		</g>
		<g>
			<g>
				<g>
					<path class="st1" d="M61.19,24.53c-0.05-0.1-0.09-0.21-0.14-0.31c0.65,1.84,1.88,3.46,2.92,4.94c0.05,0.11,0.16,0.32,0.21,0.42
						c0.56,0.72,1.4,1.49,2.14,2c0.37,0.27,0.85,0.19,0.85,0.19c0.13,0.02,0.29-0.02,0.25-0.14c-0.16-0.15-0.58-0.5-0.5-0.6
						c0.02-0.02,0.1,0.04,0.19,0.11c0.08-0.1,0.49-0.1,0.58-0.04c0.13,0.01,0.75,0.24,0.87,0.25c0.31,0.11-0.17-0.85-0.43-1.16
						c-0.12-0.18,0.1-0.12,0.16-0.2c-0.18-0.1-0.19-0.24-0.37-0.35c0.02-0.03-0.43-0.43-0.64-0.64c0,0-0.1-0.04-0.32-0.25
						c-0.07-0.07-0.1-0.04-0.12-0.02c0.02-0.02,0.02-0.02,0.04-0.05c-0.12-0.02-0.22-0.21-0.31-0.26c0.02-0.02,0.02-0.02,0.05-0.05
						c-0.19-0.1-0.28-0.28-0.45-0.4c0.02-0.02,0.02-0.02,0.05-0.04c-0.07-0.07-0.14-0.14-0.12-0.17c0.02-0.02,0.02-0.02,0.05-0.04
						c-0.04-0.1-0.22-0.2-0.18-0.24c-0.02,0.02-0.02,0.02-0.05,0.04c-0.27-0.29-0.44-0.54-0.6-0.79c-0.41-0.69-1.02-1.44-1.52-2.17
						c-0.05-0.08-0.15-0.14-0.16-0.02l-0.15-0.25c-0.09-0.17-0.13-0.04-0.22-0.21c-0.87-1.32-1.23-2.9-1.29-4.3
						c-0.03,0.35-0.09,0.63,0,1c-0.03,0-0.1,0.01-0.09,0.11c0.05,0.57,0.3,1.21,0.28,1.53c0,0.1-0.05,0.23,0.05,0.51l-0.1-0.28
						c-0.03,0.01-0.09,0.03-0.09,0.03c0.1,0.4,0.28,0.87,0.42,1.26c0,0-0.06,0.03-0.09,0.04l0.09,0.18
						c-0.11,0.29-0.6-0.76-0.78-1.25c-0.03,0.01-0.09,0.03-0.12,0.04l0.07,0.2l-0.06,0.02c-0.22-0.6-0.39-1.11-0.51-1.74
						c0.02,0.1,0.07,0.31,0.09,0.42c-0.03,0.01-0.06,0.02-0.03,0.12c-0.11-0.42-0.18-0.95-0.28-1.37c-0.04-0.1-0.13,0.01-0.12,0.34
						c0.03,0.33,0.1,0.54,0.16,0.87l-0.06,0.01c-0.04-0.22-0.09-0.55-0.15-0.76c-0.05-0.11-0.07,0.24-0.11,0.13
						c-0.02-0.11-0.03-0.22-0.07-0.33c0.02,0.34,0.16,0.77,0.2,1.11c0,0.12,0,0.23-0.06,0.25c0.17,0.54,0.25,0.98,0.21,1.36
						C60.79,23.71,61.05,24.22,61.19,24.53z"/>
				</g>
			</g>
		</g>
	</g>
	<path class="st2" d="M17.88,34.08v0.53H0.14V0.95h0.58v33.12H17.88z"/>
	<path class="st2" d="M54.28,17.78c0,2.66-0.38,5.05-1.14,7.16c-0.76,2.12-1.83,3.91-3.2,5.4c-1.37,1.48-3.01,2.62-4.92,3.41
		c-1.91,0.79-4.01,1.19-6.32,1.19c-2.29,0-4.39-0.4-6.29-1.19c-1.9-0.79-3.53-1.93-4.9-3.41c-1.37-1.48-2.44-3.28-3.2-5.4
		c-0.76-2.12-1.14-4.5-1.14-7.16c0-2.64,0.38-5.03,1.14-7.15c0.76-2.12,1.83-3.93,3.2-5.42c1.37-1.49,3-2.64,4.9-3.44
		c1.9-0.8,3.99-1.2,6.29-1.2c2.31,0,4.41,0.4,6.32,1.19c1.91,0.79,3.55,1.93,4.92,3.43c1.37,1.49,2.44,3.3,3.2,5.42
		C53.9,12.73,54.28,15.12,54.28,17.78z M53.66,17.78c0-2.61-0.36-4.95-1.09-7.02c-0.73-2.07-1.75-3.82-3.06-5.26
		c-1.31-1.44-2.89-2.54-4.72-3.31c-1.84-0.76-3.86-1.14-6.07-1.14c-2.18,0-4.18,0.38-6.01,1.14c-1.83,0.76-3.4,1.86-4.72,3.31
		c-1.32,1.44-2.36,3.2-3.1,5.26c-0.75,2.07-1.12,4.41-1.12,7.02c0,2.61,0.37,4.95,1.12,7.01c0.75,2.06,1.78,3.81,3.1,5.24
		c1.32,1.43,2.9,2.53,4.72,3.29c1.83,0.76,3.83,1.14,6.01,1.14c2.21,0,4.23-0.38,6.07-1.14c1.83-0.76,3.41-1.86,4.72-3.29
		c1.31-1.43,2.34-3.18,3.06-5.24C53.29,22.73,53.66,20.39,53.66,17.78z"/>
	<path class="st2" d="M108.75,0.95c3.67,0,6.49,0.79,8.45,2.38c1.96,1.59,2.94,4,2.94,7.24c0,1.39-0.28,2.68-0.83,3.86
		c-0.55,1.18-1.33,2.19-2.34,3.04c-1.01,0.85-2.21,1.51-3.61,2c-1.39,0.48-2.93,0.72-4.62,0.72h-7.02v14.42h-0.58V0.95H108.75z
		 M108.75,19.7c1.65,0,3.14-0.24,4.47-0.71c1.33-0.47,2.46-1.12,3.4-1.95c0.94-0.83,1.66-1.79,2.18-2.9
		c0.51-1.11,0.77-2.3,0.77-3.58c0-3-0.9-5.27-2.7-6.81c-1.8-1.55-4.51-2.32-8.11-2.32h-7.02V19.7H108.75z"/>
</g>
</svg>
