<svg version="1.1" id="Layer_1" xmlns="http://www.w3.org/2000/svg" x="0" y="0" width="120.28" height="35.87" xml:space="preserve"><style>.st0{fill:#6d6e70}</style><path class="st0" d="M84.3 1.54c.36.14.71.32 1.05.5C82.47.46 78.96-.31 75.56.12c-1.69.19-3.36.75-4.82 1.4-1.48.65-2.89 1.43-4.18 2.34-.33.22-1 .66-1.3.93a14.602 14.602 0 00-3.28 4.05c-.89 1.58-1.46 3.31-1.77 4.85-.33 1.55-.08 2.74-.08 2.74.03.39.12.78.22.41.07-.75.42-2.62.56-2.59.02.01-.05.37-.11.75.13.03.18 1.17.16 1.53.02.19 0 .84.03 1.49.04.65.08 1.29.1 1.47.07 1.09.61-2.18.95-3.55.18-.69.16.03.25.04.1-.69.21-1.03.36-1.71.03.01.13-.51.34-1.12.1-.31.22-.64.33-.96.13-.31.26-.6.36-.84 0 0 .03-.09.1-.28.08-.2.24-.5.47-.95.15-.3.15-.31.11-.33.03.02.03.02.06.03.14-.31.52-.88.73-1.15.03.02.03.02.05.04.34-.59.85-1.05 1.29-1.57l.05.05c.25-.23.5-.46.52-.44.02.02.02.02.04.05.25-.22.75-.68.79-.63-.02-.03-.02-.03-.04-.05 1.06-.85 1.97-1.35 2.91-1.81.62-.3 1.32-.59 2.01-.87.35-.12.69-.26 1.05-.37.36-.1.73-.19 1.1-.29 1.5-.33 3.09-.41 4.59-.23.33.06.67.05.35-.07.33.06.67.1 1 .2.66.17.36-.03 1.01.17 2.66.72 5.07 2.28 7.02 4.26l.7.77.7.82c.45.54.82 1.06 1.14 1.65.64 1.16 1.08 2.51 1.49 3.88-.36-1.38-.62-2.43-1.24-3.63.03-.01.09-.05-.07-.34-.46-.9-1.18-1.73-1.89-2.54-.66-.76-1.3-1.37-1.65-1.77-.26-.23-.44-.58-1.31-1.19.29.2.58.41.85.64.02-.03.06-.08.06-.08-1.08-.93-2.61-1.9-3.91-2.49 0 0 .03-.06.04-.09l-.66-.28c-.3-.23.49 0 1.52.47 1.05.45 2.26 1.29 3 1.82.02-.03.06-.08.08-.1-.19-.16-.4-.29-.6-.43l.04-.05c1.81 1.28 3.09 2.65 4.46 4.39-.22-.3-.7-.86-.94-1.14.02-.02.05-.04-.19-.32.48.56 1.03 1.18 1.5 1.88.47.69.84 1.45 1.15 2.12.16.34.15-.06-.32-1.09-.52-1.01-.98-1.64-1.71-2.48l.05-.04c.49.56 1.16 1.5 1.54 2.16.22.32-.3-.71-.08-.4.18.31.33.58.57 1.01-.46-1.06-1.43-2.33-2.15-3.16-.21-.3-.46-.6-.4-.64a49.21 49.21 0 00-3.31-3.19c-.28-.32-1.96-1.3-3.05-1.73z"/><path class="st0" d="M79.89 35.69c-.32.05-.64.08-.97.11 2.76-.15 5.53-1.12 7.89-2.57.6-.35 1.16-.75 1.72-1.14.54-.42 1.08-.79 1.63-1.31 1.07-1 1.84-2.18 2.47-3.36.16-.29.5-.87.63-1.17 1.07-2.44 1.51-5.66 1.59-8.19.04-1.27-.32-2.21-.32-2.21-.06-.31-.19-.62-.26-.31-.02.62-.08 2.18-.21 2.17-.03 0-.02-.31-.01-.62-.13-.01-.35-.94-.36-1.24-.05-.31-.28-2.14-.36-2.44-.13-.9-.5 1.85-.64 3.03-.09.6-.16 0-.26-.01.01.6-.09.89-.09 1.49-.01 0-.02.11-.04.29-.02.19-.04.43-.07.7-.07.55-.14 1.21-.21 1.65 0 0 0 .3-.15 1.16-.06.29-.02.29.01.3-.03-.01-.03-.01-.06-.01.02.3-.17.86-.22 1.15l-.06-.02c-.07.58-.3 1.12-.45 1.67l-.06-.02c-.1.27-.19.54-.22.52l-.06-.02c-.12.26-.3.79-.35.76.03.01.03.01.06.03a9.418 9.418 0 01-1.44 2.3c-.38.39-.72.74-1.21 1.11-.5.39-1.02.79-1.57 1.16-1.09.75-2.26 1.42-3.43 1.92-.26.1-.51.25-.22.22-.27.09-.53.21-.8.28-.54.15-.24.18-.79.32-2.16.64-4.58.62-6.75.16-2.11-.52-4.05-1.96-6.2-3.22 1.04.68 1.77 1.24 2.81 1.82-.02.03-.05.08.21.23.76.45 1.61.87 2.37 1.13.77.27 1.41.39 1.86.51.29.07.57.21 1.46.26-.29-.01-.59-.04-.88-.07 0 .03-.01.1-.01.1 1.18.16 2.67.18 3.85.02 0 0 .01.06.01.1l.59-.1c.32.05-.34.25-1.28.37-.94.13-2.15.11-2.91.06 0 .03-.01.1-.01.13.2.01.41.04.61.04v.06c-1.83-.09-3.39-.36-5.04-1.21.27.14.84.39 1.13.49-.01.03-.03.07.27.17-1.18-.4-2.51-1.19-3.58-1.79-.28-.14-.07.11.71.62.8.46 1.35.77 2.22 1.13l-.02.06c-.59-.23-1.41-.69-1.96-.98-.29-.13.5.39.21.27-.28-.15-.54-.31-.83-.44.8.49 1.92 1.06 2.81 1.42.29.14.59.27.57.34 1.61.45 2.83.56 3.8.78.28.07 1.91.01 2.87-.16z"/><path d="M61.19 24.53c-.05-.1-.09-.21-.14-.31.65 1.84 1.88 3.46 2.92 4.94.05.11.16.32.21.42.56.72 1.4 1.49 2.14 2 .37.27.85.19.85.19.13.02.29-.02.25-.14-.16-.15-.58-.5-.5-.6.02-.02.1.04.19.11.08-.1.49-.1.58-.04.13.01.75.24.87.25.31.11-.17-.85-.43-1.16-.12-.18.1-.12.16-.2-.18-.1-.19-.24-.37-.35.02-.03-.43-.43-.64-.64 0 0-.1-.04-.32-.25-.07-.07-.1-.04-.12-.02.02-.02.02-.02.04-.05-.12-.02-.22-.21-.31-.26l.05-.05c-.19-.1-.28-.28-.45-.4.02-.02.02-.02.05-.04-.07-.07-.14-.14-.12-.17.02-.02.02-.02.05-.04-.04-.1-.22-.2-.18-.24-.02.02-.02.02-.05.04-.27-.29-.44-.54-.6-.79-.41-.69-1.02-1.44-1.52-2.17-.05-.08-.15-.14-.16-.02l-.15-.25c-.09-.17-.13-.04-.22-.21-.87-1.32-1.23-2.9-1.29-4.3-.03.35-.09.63 0 1-.03 0-.1.01-.09.11.05.57.3 1.21.28 1.53 0 .1-.05.23.05.51l-.1-.28-.09.03c.1.4.28.87.42 1.26 0 0-.06.03-.09.04l.09.18c-.11.29-.6-.76-.78-1.25l-.12.04.07.2-.06.02c-.22-.6-.39-1.11-.51-1.74.02.1.07.31.09.42-.03.01-.06.02-.03.12-.11-.42-.18-.95-.28-1.37-.04-.1-.13.01-.12.34.03.33.1.54.16.87l-.06.01c-.04-.22-.09-.55-.15-.76-.05-.11-.07.24-.11.13-.02-.11-.03-.22-.07-.33.02.34.16.77.2 1.11 0 .12 0 .23-.06.25.17.54.25.98.21 1.36-.04.13.22.64.36.95z" fill="#cd9f96"/><path d="M17.88 34.08v.53H.14V.95h.58v33.12h17.16zm36.4-16.3c0 2.66-.38 5.05-1.14 7.16-.76 2.12-1.83 3.91-3.2 5.4a13.82 13.82 0 01-4.92 3.41c-1.91.79-4.01 1.19-6.32 1.19-2.29 0-4.39-.4-6.29-1.19-1.9-.79-3.53-1.93-4.9-3.41-1.37-1.48-2.44-3.28-3.2-5.4-.76-2.12-1.14-4.5-1.14-7.16 0-2.64.38-5.03 1.14-7.15.76-2.12 1.83-3.93 3.2-5.42 1.37-1.49 3-2.64 4.9-3.44 1.9-.8 3.99-1.2 6.29-1.2 2.31 0 4.41.4 6.32 1.19 1.91.79 3.55 1.93 4.92 3.43 1.37 1.49 2.44 3.3 3.2 5.42.76 2.12 1.14 4.51 1.14 7.17zm-.62 0c0-2.61-.36-4.95-1.09-7.02-.73-2.07-1.75-3.82-3.06-5.26s-2.89-2.54-4.72-3.31c-1.84-.76-3.86-1.14-6.07-1.14-2.18 0-4.18.38-6.01 1.14-1.83.76-3.4 1.86-4.72 3.31-1.32 1.44-2.36 3.2-3.1 5.26-.75 2.07-1.12 4.41-1.12 7.02 0 2.61.37 4.95 1.12 7.01.75 2.06 1.78 3.81 3.1 5.24 1.32 1.43 2.9 2.53 4.72 3.29 1.83.76 3.83 1.14 6.01 1.14 2.21 0 4.23-.38 6.07-1.14 1.83-.76 3.41-1.86 4.72-3.29 1.31-1.43 2.34-3.18 3.06-5.24.72-2.06 1.09-4.4 1.09-7.01zM108.75.95c3.67 0 6.49.79 8.45 2.38 1.96 1.59 2.94 4 2.94 7.24 0 1.39-.28 2.68-.83 3.86a8.776 8.776 0 01-2.34 3.04c-1.01.85-2.21 1.51-3.61 2-1.39.48-2.93.72-4.62.72h-7.02v14.42h-.58V.95h7.61zm0 18.75c1.65 0 3.14-.24 4.47-.71 1.33-.47 2.46-1.12 3.4-1.95a8.8 8.8 0 002.18-2.9c.51-1.11.77-2.3.77-3.58 0-3-.9-5.27-2.7-6.81-1.8-1.55-4.51-2.32-8.11-2.32h-7.02V19.7h7.01z" fill="#58595b" stroke="#58595b" stroke-width=".28" stroke-miterlimit="10"/></svg>