<svg xmlns="http://www.w3.org/2000/svg" width="158.26" height="162.99"><path d="M110.25 6.99c.81.36 1.64.66 2.42 1.06s1.57.8 2.35 1.2c-6.57-3.58-13.81-6.28-21.37-7.8C86.1-.08 78.22-.42 70.53.53c-1.91.32-3.82.63-5.73.95-1.87.48-3.74.96-5.6 1.44-1.84.54-3.62 1.25-5.43 1.87-.45.16-.91.31-1.34.49l-1.27.55c-.85.36-1.69.73-2.53 1.09-6.71 2.97-13.14 6.49-19.01 10.63-1.48 1.01-4.53 2.99-5.91 4.2-5.5 4.71-10.92 11.15-14.9 18.38-.93 1.83-1.94 3.64-2.76 5.5-.76 1.88-1.52 3.75-2.27 5.59-.59 1.88-1.16 3.74-1.73 5.56-.31.9-.49 1.82-.69 2.72s-.4 1.79-.59 2.66-.36 1.72-.49 2.54c-.1.82-.14 1.62-.19 2.37-.08 1.5-.09 2.84-.06 3.96 0 1.11.12 2.01.22 2.62.1.6.16.95.16.95.11 1.77.52 3.53.99 1.85.11-.86.26-2.03.43-3.31s.49-2.65.73-3.92c.26-1.27.52-2.42.74-3.26.21-.83.5-1.33.63-1.3.08.02-.01.44-.11 1.07-.09.64-.23 1.48-.38 2.33.6.13.8 5.3.74 6.97.03.43.04 1.38.05 2.6.03 1.21-.05 2.68.08 4.15.17 2.94.35 5.86.46 6.7.19 2.52.85-.02 1.69-3.89.4-1.94.79-4.23 1.34-6.4.24-1.09.47-2.16.68-3.15.1-.5.19-.98.28-1.43.11-.45.22-.87.31-1.27.83-3.13.72.11 1.16.17.19-1.58.47-2.75.73-3.91.14-.58.25-1.17.41-1.79.17-.62.34-1.29.49-2.07.04.01.21-.56.47-1.48.28-.92.55-2.23 1.08-3.6.47-1.39.99-2.91 1.49-4.37.6-1.41 1.17-2.74 1.62-3.81 0 0 .12-.37.46-1.28.38-.89 1.09-2.26 2.15-4.32.35-.69.51-1.04.58-1.23.06-.19-.01-.23-.07-.26.13.07.13.07.25.15.29-.73.92-1.7 1.55-2.67.32-.48.64-.97.93-1.41.33-.42.61-.81.82-1.14.12.09.12.09.24.17.41-.65.85-1.29 1.3-1.91.46-.62.9-1.25 1.45-1.79 1.06-1.12 2.1-2.26 3.11-3.43l.21.21c1.13-1.05 2.25-2.11 2.35-2l.2.22c1.15-1 3.42-3.1 3.6-2.88-.09-.11-.09-.11-.18-.23.6-.48 1.19-.95 1.76-1.4.58-.44 1.19-.82 1.76-1.21 1.16-.76 2.22-1.53 3.31-2.17 2.23-1.23 4.22-2.46 6.39-3.42 2.81-1.35 5.98-2.69 9.15-3.95 1.58-.53 3.15-1.17 4.78-1.67 1.66-.42 3.31-.92 5.01-1.32 6.8-1.52 14.06-1.85 20.88-1.05 1.5.26 3.07.23 1.6-.32 1.52.27 3.05.45 4.54.89 1.5.38 1.9.37 2.3.36.2-.01.4-.01.75.03.34.04.82.13 1.56.39 6.03 1.61 11.8 4.25 17.16 7.55s10.3 7.29 14.72 11.8l3.19 3.49c1.08 1.23 2.19 2.54 3.2 3.75 2.03 2.44 3.73 4.83 5.17 7.49 2.91 5.28 4.91 11.43 6.76 17.65-1.62-6.27-2.8-11.05-5.66-16.51.12-.06.42-.22-.33-1.56a40.088 40.088 0 00-3.86-5.93c-1.47-1.89-3.16-3.83-4.73-5.62a841.9 841.9 0 01-2.22-2.46c-.35-.4-.69-.78-1.03-1.16-.33-.37-.69-.7-1.02-1.03a73.738 73.738 0 01-3.21-3.41c-.57-.56-1.1-1.18-1.95-2.05-.43-.43-.93-.93-1.57-1.5s-1.47-1.15-2.45-1.85l1.98 1.4c.65.48 1.25 1.02 1.88 1.52l.28-.34c-.62-.52-1.24-1.1-1.92-1.61-.69-.51-1.39-1.03-2.11-1.56s-1.44-1.07-2.17-1.61l-2.31-1.47c-.77-.49-1.55-.98-2.31-1.47-.79-.45-1.59-.86-2.37-1.29-.78-.42-1.56-.84-2.31-1.25-.76-.41-1.54-.71-2.28-1.06 0 0 .12-.27.17-.4l-3.02-1.28c-.67-.54-.13-.54 1.18-.12.65.2 1.5.5 2.49.87.49.19 1.02.39 1.57.6l1.68.81c4.78 2.06 10.26 5.86 13.61 8.29.09-.12.27-.35.36-.46-.86-.71-1.81-1.31-2.71-1.97l.17-.24c4.15 2.86 7.57 5.99 10.89 9.18 3.17 3.36 6.29 6.74 9.36 10.76-.99-1.37-3.17-3.93-4.26-5.19.11-.09.23-.2-.88-1.45 2.19 2.52 4.69 5.38 6.81 8.56 2.14 3.15 3.83 6.58 5.24 9.65.39.75.53.7.34-.14s-.68-2.48-1.78-4.81c-2.35-4.58-4.46-7.44-7.75-11.29l.22-.19c1.09 1.29 2.44 2.95 3.69 4.72 1.26 1.76 2.41 3.6 3.29 5.1.48.72.16-.09-.17-.9-.34-.81-.71-1.61-.19-.9.47.75.86 1.53 1.31 2.28.4.77.85 1.53 1.28 2.29-1.11-2.37-2.62-5.07-4.41-7.58-1.78-2.51-3.76-4.82-5.34-6.76-.94-1.35-2.07-2.73-1.84-2.92-1.49-1.57-2.86-3.11-4.29-4.43-1.41-1.35-2.65-2.72-3.97-3.85-1.29-1.16-2.45-2.32-3.59-3.36-1.16-1-2.22-1.95-3.2-2.87-.6-.68-2.85-2.06-5.49-3.66-.65-.42-1.36-.77-2.08-1.14-.72-.36-1.44-.73-2.16-1.09-.72-.36-1.41-.72-2.09-1.04-.71-.29-1.37-.57-1.98-.83z" fill="#fff"/><path d="M90.2 162.19c-1.46.24-2.92.34-4.39.52 12.54-.7 25.15-5.09 35.87-11.68.67-.41 1.37-.78 2.03-1.22l1.95-1.31c1.28-.89 2.63-1.71 3.86-2.65 2.47-1.91 4.91-3.58 7.41-5.96 4.86-4.56 8.38-9.93 11.21-15.26.37-.66.92-1.65 1.47-2.64.56-.99 1.11-2 1.41-2.68.55-1.39 1.16-2.82 1.67-4.31.48-1.49.96-3.02 1.46-4.57.4-1.56.8-3.15 1.2-4.75.38-1.6.65-3.22.98-4.84 1.14-6.48 1.74-12.99 1.92-18.75.11-2.88-.3-5.41-.64-7.2-.38-1.79-.8-2.86-.8-2.86-.29-1.43-.87-2.84-1.17-1.42-.07 2.82-.38 9.89-.96 9.86-.15-.01-.1-1.41-.05-2.82-.58-.03-1.59-4.25-1.63-5.64-.16-.7-.39-3.14-.76-5.57-.36-2.43-.72-4.84-.89-5.53-.31-2.08-.86.05-1.44 3.33-.52 3.29-1.22 7.73-1.47 10.45-.39 2.71-.73-.02-1.17-.02.03 2.71-.4 4.05-.42 6.75-.04 0-.11.5-.2 1.32-.08.82-.19 1.95-.32 3.2-.15 1.25-.32 2.62-.48 3.93-.15 1.31-.3 2.56-.47 3.54 0 0-.01.34-.1 1.17-.05.42-.11.95-.19 1.64s-.2 1.51-.41 2.48c-.25 1.31-.11 1.33.03 1.36-.14-.03-.14-.03-.29-.06.01.68-.17 1.67-.39 2.64-.25.96-.52 1.92-.61 2.58-.14-.04-.14-.04-.28-.07-.08.66-.2 1.31-.34 1.95-.15.64-.36 1.26-.55 1.89-.42 1.24-.75 2.52-1.16 3.75-.14-.05-.14-.05-.28-.09-.44 1.22-.88 2.43-1.02 2.38s-.14-.05-.27-.1c-.27.59-.61 1.48-.92 2.21-.3.74-.55 1.32-.68 1.26.13.06.13.06.27.12-2.11 4.62-4.24 7.7-6.55 10.44-.85.82-1.67 1.73-2.56 2.57-.46.4-.93.8-1.4 1.2l-.7.62-.86.65c-1.14.88-2.31 1.77-3.48 2.68-1.17.92-2.43 1.7-3.65 2.59-4.95 3.4-10.27 6.48-15.58 8.72-1.2.43-2.31 1.15-1 .98-1.22.42-2.41.94-3.65 1.25-2.47.7-1.1.83-3.6 1.47-4.97 1.43-10.12 2.16-15.31 2.24-2.59.07-5.2-.1-7.82-.33-1.31-.13-2.63-.29-3.97-.48l-1.81-.31c-.6-.1-1.19-.27-1.79-.4-9.57-2.37-18.42-8.9-28.17-14.62 4.74 3.09 8.05 5.65 12.77 8.27-.07.13-.22.38.94 1.06 3.46 2.07 7.3 3.95 10.76 5.13 1.73.63 3.36 1.05 4.79 1.42.71.17 1.38.32 1.98.46.61.15 1.22.27 1.7.41 1.32.3 2.61.95 6.62 1.18-1.34-.06-2.67-.17-4.01-.3-.01.15-.04.44-.04.44 5.36.71 12.12.82 17.48.1l.06.43 2.68-.44c.72.14.34.39-.76.7-.55.16-1.27.33-2.13.52-.85.18-1.85.29-2.91.44-4.26.57-9.79.51-13.23.26-.01.15-.04.44-.05.58.92.06 1.85.17 2.77.18l-.01.29c-2.09-.1-4.09-.29-6.03-.51-1.94-.24-3.85-.48-5.73-.93-3.76-.84-7.37-2.22-11.13-4.07 1.25.63 3.8 1.77 5.12 2.24-.05.12-.12.31 1.22.75-5.36-1.81-11.39-5.42-16.26-8.12-1.25-.62-.34.52 3.21 2.8 3.65 2.11 6.14 3.48 10.08 5.14l-.11.27c-2.68-1.06-6.4-3.15-8.9-4.45-1.31-.57 2.25 1.77.95 1.2-1.25-.69-2.47-1.41-3.76-2.01 3.61 2.21 8.73 4.8 12.79 6.46 1.31.66 2.67 1.24 2.58 1.53.9.24 1.77.49 2.63.71.87.19 1.7.42 2.53.57.82.15 1.66.33 2.4.46s1.47.26 2.17.39c2.83.51 5.34.98 7.53 1.41.72.19 2.93.25 5.51.15 2.59-.07 5.52-.41 7.7-.72z" fill="#fff"/><path d="M5.23 111.45c-.24-.45-.42-.94-.64-1.41 1.5 4.13 3.59 8.14 5.98 11.84 2.38 3.71 4.9 7.25 7.29 10.59.24.48.71 1.44.95 1.92 2.53 3.27 6.35 6.78 9.75 9.1.84.6 1.8.83 2.56.89.77.05 1.31-.04 1.31-.04.58.07 1.33-.09 1.11-.63-.73-.69-2.65-2.27-2.27-2.73.09-.11.47.2.85.52.18-.23.74-.33 1.3-.35.57-.03 1.14.03 1.33.18.57.07 3.41 1.1 3.96 1.14 1.39.49-.75-3.85-1.94-5.29-.54-.81.45-.57.72-.92-.81-.46-.88-1.1-1.68-1.57.1-.12-1.95-1.94-2.93-2.9 0 0-.43-.2-1.45-1.12-.34-.31-.44-.2-.54-.1.1-.11.1-.11.2-.21-.55-.09-.99-.95-1.41-1.17l.21-.21c-.85-.44-1.28-1.29-2.03-1.84.11-.1.11-.1.21-.2-.33-.32-.63-.65-.52-.76.11-.1.11-.1.21-.2-.2-.44-1.02-.91-.8-1.11l-.22.2c-.61-.67-1.11-1.29-1.56-1.87-.44-.59-.8-1.17-1.17-1.74-1.87-3.12-4.66-6.56-6.92-9.86-.22-.38-.7-.62-.73-.09l-.68-1.16c-.42-.78-.59-.18-1-.98-2.04-2.98-3.36-6.32-4.32-9.65a42.69 42.69 0 01-1.56-9.91c-.05.81-.15 1.52-.21 2.25-.05.72.05 1.47.2 2.3-.14.02-.43.06-.39.48.03.64.21 1.31.32 1.98.14.66.24 1.32.43 1.93.35 1.23.52 2.32.5 3.04.02.47-.24 1.04.22 2.33l-.47-1.29c-.13.06-.4.16-.4.16.44 1.8 1.26 3.98 1.9 5.74 0 0-.26.13-.4.19l.43.84c-.51 1.33-2.71-3.45-3.57-5.68l-.55.2.33.91-.27.1c-.48-1.38-1-2.6-1.32-3.9-.18-.64-.36-1.28-.55-1.94-.18-.66-.29-1.35-.44-2.06.1.48.28 1.43.4 1.9-.14.03-.28.07-.15.54-.49-1.9-.8-4.31-1.25-6.24-.2-.48-.58.04-.56 1.56.07.75.19 1.37.32 1.98.12.61.25 1.22.4 1.96l-.28.07c-.19-.99-.39-2.48-.66-3.46-.22-.48-.3 1.07-.51.6-.08-.51-.12-1.02-.33-1.52.06.76.2 1.65.42 2.52.2.87.36 1.75.47 2.51 0 .52-.01 1.05-.29 1.13.78 2.45 1.13 4.46.97 6.2-.09.59 1.07 2.91 1.72 4.31z" fill="#cd9f96"/><path d="M37.28 93.41h13.03v.4H36.85V68.26h.44l-.01 25.15zm38.66-12.37c0 2.02-.29 3.83-.87 5.44s-1.39 2.97-2.43 4.1a10.523 10.523 0 01-3.73 2.59c-1.45.6-3.05.9-4.8.9-1.74 0-3.33-.3-4.77-.9s-2.68-1.47-3.72-2.59c-1.04-1.13-1.85-2.49-2.43-4.1s-.87-3.42-.87-5.44c0-2.01.29-3.82.87-5.43.58-1.61 1.39-2.98 2.43-4.12 1.04-1.13 2.28-2 3.72-2.61s3.03-.91 4.77-.91c1.75 0 3.35.3 4.8.9 1.45.6 2.69 1.47 3.73 2.6s1.85 2.5 2.43 4.12c.58 1.61.87 3.43.87 5.45zm-.47 0c0-1.98-.28-3.76-.83-5.33s-1.33-2.9-2.33-4-2.19-1.93-3.59-2.51-2.93-.87-4.61-.87c-1.65 0-3.18.29-4.56.87s-2.58 1.41-3.59 2.51c-1 1.09-1.79 2.43-2.35 4-.57 1.57-.85 3.35-.85 5.33s.28 3.76.85 5.32 1.35 2.89 2.35 3.98 2.2 1.92 3.59 2.5 2.91.87 4.56.87c1.68 0 3.22-.29 4.61-.87s2.59-1.41 3.59-2.5 1.77-2.42 2.33-3.98.83-3.34.83-5.32zm29.57 0c0 2.02-.29 3.83-.87 5.44s-1.39 2.97-2.43 4.1a10.523 10.523 0 01-3.73 2.59c-1.45.6-3.05.9-4.8.9-1.74 0-3.33-.3-4.77-.9-1.44-.6-2.68-1.47-3.72-2.59-1.04-1.13-1.85-2.49-2.43-4.1s-.87-3.42-.87-5.44c0-2.01.29-3.82.87-5.43s1.39-2.98 2.43-4.12c1.04-1.13 2.28-2 3.72-2.61s3.03-.91 4.77-.91c1.75 0 3.35.3 4.8.9 1.45.6 2.69 1.47 3.73 2.6s1.85 2.5 2.43 4.12.87 3.43.87 5.45zm-.48 0c0-1.98-.28-3.76-.83-5.33s-1.33-2.9-2.33-4-2.19-1.93-3.59-2.51c-1.39-.58-2.93-.87-4.61-.87-1.66 0-3.18.29-4.56.87-1.39.58-2.58 1.41-3.59 2.51-1 1.09-1.79 2.43-2.35 4-.57 1.57-.85 3.35-.85 5.33s.28 3.76.85 5.32 1.35 2.89 2.35 3.98 2.2 1.92 3.59 2.5 2.91.87 4.56.87c1.68 0 3.21-.29 4.61-.87 1.39-.58 2.59-1.41 3.59-2.5s1.77-2.42 2.33-3.98.83-3.34.83-5.32zm8.76 1.82v10.95h-.44V68.26h5.77c2.79 0 4.92.6 6.42 1.81 1.49 1.2 2.24 3.04 2.24 5.49 0 1.06-.21 2.04-.63 2.93s-1.01 1.66-1.78 2.31c-.77.65-1.68 1.15-2.74 1.51-1.06.37-2.23.55-3.5.55h-5.34zm0-.36h5.33c1.25 0 2.38-.18 3.4-.54 1.01-.36 1.87-.85 2.58-1.48s1.26-1.36 1.65-2.2.58-1.75.58-2.72c0-2.28-.68-4-2.05-5.17s-3.42-1.76-6.16-1.76h-5.33V82.5z" fill="#fff"/></svg>