<?xml version="1.0" encoding="utf-8"?>
<!-- Generator: Adobe Illustrator 24.0.2, SVG Export Plug-In . SVG Version: 6.00 Build 0)  -->
<svg version="1.1" id="Layer_1" xmlns="http://www.w3.org/2000/svg" xmlns:xlink="http://www.w3.org/1999/xlink" x="0px" y="0px"
	 width="60px" height="46.95px" viewBox="0 0 60 46.95" style="enable-background:new 0 0 60 46.95;" xml:space="preserve">
<title>quote</title>
<path d="M25.61,3.35L23.43,0C8.37,10.12,0,22.43,0,32.55c0,9.79,7.2,14.39,13.31,14.39c7.7,0,13.14-6.53,13.14-13.39
	c0-5.77-3.68-10.71-8.62-12.55c-1.42-0.5-2.76-0.92-2.76-3.35C15.06,14.56,17.32,9.96,25.61,3.35L25.61,3.35z M58.83,3.35L56.65,0
	c-14.9,10.12-23.43,22.43-23.43,32.55c0,9.79,7.36,14.39,13.47,14.39c7.78,0,13.31-6.53,13.31-13.39c0-5.77-3.77-10.71-8.87-12.55
	c-1.42-0.5-2.68-0.92-2.68-3.35C48.45,14.56,50.79,9.96,58.83,3.35L58.83,3.35z"/>
</svg>
